<?xml version="1.0" encoding="UTF-8" standalone="no"?>
<svg width="116px" height="158px" viewBox="0 0 116 158" version="1.1" xmlns="http://www.w3.org/2000/svg" xmlns:xlink="http://www.w3.org/1999/xlink">
    <!-- Generator: Sketch 3.6.1 (26313) - http://www.bohemiancoding.com/sketch -->
    <title>Apt</title>
    <desc>Created with Sketch.</desc>
    <defs></defs>
    <g id="Page-1" stroke="none" stroke-width="1" fill="none" fill-rule="evenodd">
        <g id="Apt" fill="#FFFFFF">
            <g id="Group">
                <path d="M87.5,0.5 L28.4,0.5 C13.2,0.5 0.8,12.9 0.8,28.1 L0.8,130.2 C0.8,145.4 13.2,157.8 28.4,157.8 L87.5,157.8 C102.7,157.8 115.1,145.4 115.1,130.2 L115.1,28.1 C115.1,12.9 102.7,0.5 87.5,0.5 L87.5,0.5 Z M107.9,130.2 C107.9,141.5 98.7,150.6 87.5,150.6 L74.6,150.6 L74.6,108.3 L41.3,108.3 L41.3,150.6 L28.4,150.6 C17.1,150.6 8,141.4 8,130.2 L8,28.1 C8,16.8 17.2,7.7 28.4,7.7 L87.5,7.7 C98.8,7.7 107.9,16.9 107.9,28.1 L107.9,130.2 L107.9,130.2 Z" id="Shape"></path>
                <g transform="translate(23.000000, 22.000000)" id="Rectangle-path">
                    <rect x="0.7" y="43.4" width="26.8" height="26.8"></rect>
                    <rect x="0.7" y="0.5" width="26.8" height="26.8"></rect>
                    <rect x="42.4" y="43.4" width="26.8" height="26.8"></rect>
                    <rect x="42.4" y="0.5" width="26.8" height="26.8"></rect>
                </g>
            </g>
        </g>
    </g>
</svg>