<?xml version="1.0" encoding="utf-8"?>
<!-- Generator: Adobe Illustrator 19.1.0, SVG Export Plug-In . SVG Version: 6.00 Build 0)  -->
<svg version="1.1" id="Layer_1" xmlns="http://www.w3.org/2000/svg" xmlns:xlink="http://www.w3.org/1999/xlink" x="0px" y="0px"
	 viewBox="0 0 181 181" style="enable-background:new 0 0 181 181;" xml:space="preserve">
<g>
	<path d="M121.5,11.5H62.4c-15.2,0-27.6,12.4-27.6,27.6v102.1c0,15.2,12.4,27.6,27.6,27.6h59.1c15.2,0,27.6-12.4,27.6-27.6V39.1
		C149.1,23.9,136.7,11.5,121.5,11.5z M141.9,141.2c0,11.3-9.2,20.4-20.4,20.4h-12.9v-42.3H75.3v42.3H62.4
		c-11.3,0-20.4-9.2-20.4-20.4V39.1c0-11.3,9.2-20.4,20.4-20.4h59.1c11.3,0,20.4,9.2,20.4,20.4V141.2z"/>
	<g>
		<rect x="57.7" y="76.4" width="26.8" height="26.8"/>
		<rect x="57.7" y="33.5" width="26.8" height="26.8"/>
		<rect x="99.4" y="76.4" width="26.8" height="26.8"/>
		<rect x="99.4" y="33.5" width="26.8" height="26.8"/>
	</g>
</g>
</svg>
