<?xml version="1.0" encoding="utf-8"?>
<!-- Generator: Adobe Illustrator 19.1.0, SVG Export Plug-In . SVG Version: 6.00 Build 0)  -->
<svg version="1.1" id="Layer_1" xmlns="http://www.w3.org/2000/svg" xmlns:xlink="http://www.w3.org/1999/xlink" x="0px" y="0px"
	 viewBox="0 0 181 181" style="enable-background:new 0 0 181 181;" xml:space="preserve">
<g>
	<path d="M76.1,97.4c0.1,0,0.1,0.1,0.2,0.1c8.1-6,16.3-12,24.4-18c-2.3-2.3-4.4-4.4-6.6-6.6C88.2,81.1,82.2,89.2,76.1,97.4z"/>
	<path d="M142.2,61.7h-14.5c1.3-1.4,2.7-2.8,4.1-4.1c0.3-0.3,0.9-0.4,1.3-0.3c1.6,0.3,3.1,0.8,4.7,1c5,0.6,9.4-1.8,10.7-6.1
		c0.6-2,0.8-4.2,0.5-6.2c-1.4-8.2-6.3-14-13.2-18.3c-3.1-1.9-6.4-3.1-10.1-3.2c-5.6,0-9.4,3-10.2,8.2c-0.4,2.6,0,5.2,0.9,7.7
		c0.2,0.6,0.2,1-0.3,1.5c-1.4,1.3-2.7,2.6-4,4c-0.5,0.5-0.9,0.6-1.6,0.3c-2.9-1.3-5.9-1.9-9.1-1.7c-5.4,0.3-9.4,3.7-10.2,9.1
		c-0.5,2.8-0.1,5.5,0.7,8.1H41.6c-11,0-19.9,8.9-19.9,19.9v59.5c0,11,8.9,19.9,19.9,19.9h100.6c11,0,19.9-8.9,19.9-19.9V81.6
		C162.1,70.7,153.2,61.7,142.2,61.7z M157.2,141.1c0,8.3-6.7,15-15,15H41.6c-8.3,0-15-6.7-15-15V81.6c0-8.3,6.7-15,15-15h52.2
		c3.6,6.8,9,11.6,16.2,14.7c3.3,1.4,6.8,2,10.4,1.3c6.5-1.3,9.3-6.9,8.6-12.7c-0.1-1.1-0.4-2.2-0.7-3.3h13.9c8.3,0,15,6.7,15,15
		V141.1z"/>
</g>
</svg>
