<?xml version="1.0" encoding="UTF-8" standalone="no"?>
<svg width="142px" height="137px" viewBox="0 0 142 137" version="1.1" xmlns="http://www.w3.org/2000/svg" xmlns:xlink="http://www.w3.org/1999/xlink">
    <!-- Generator: Sketch 3.6.1 (26313) - http://www.bohemiancoding.com/sketch -->
    <title>Bulletin</title>
    <desc>Created with Sketch.</desc>
    <defs></defs>
    <g id="Page-1" stroke="none" stroke-width="1" fill="none" fill-rule="evenodd">
        <g id="Bulletin" fill="#FFFFFF">
            <g id="Group">
                <path d="M55.1,73.4 C55.2,73.4 55.2,73.5 55.3,73.5 C63.4,67.5 71.6,61.5 79.7,55.5 L73.1,48.9 C67.2,57.1 61.2,65.2 55.1,73.4 L55.1,73.4 Z" id="Shape"></path>
                <path d="M121.2,37.7 L106.7,37.7 C108,36.3 109.4,34.9 110.8,33.6 C111.1,33.3 111.7,33.2 112.1,33.3 C113.7,33.6 115.2,34.1 116.8,34.3 C121.8,34.9 126.2,32.5 127.5,28.2 C128.1,26.2 128.3,24 128,22 C126.6,13.8 121.7,8 114.8,3.7 C111.7,1.8 108.4,0.6 104.7,0.5 C99.1,0.5 95.3,3.5 94.5,8.7 C94.1,11.3 94.5,13.9 95.4,16.4 C95.6,17 95.6,17.4 95.1,17.9 C93.7,19.2 92.4,20.5 91.1,21.9 C90.6,22.4 90.2,22.5 89.5,22.2 C86.6,20.9 83.6,20.3 80.4,20.5 C75,20.8 71,24.2 70.2,29.6 C69.7,32.4 70.1,35.1 70.9,37.7 L20.6,37.7 C9.6,37.7 0.7,46.6 0.7,57.6 L0.7,117.1 C0.7,128.1 9.6,137 20.6,137 L121.2,137 C132.2,137 141.1,128.1 141.1,117.1 L141.1,57.6 C141.1,46.7 132.2,37.7 121.2,37.7 L121.2,37.7 Z M136.2,117.1 C136.2,125.4 129.5,132.1 121.2,132.1 L20.6,132.1 C12.3,132.1 5.6,125.4 5.6,117.1 L5.6,57.6 C5.6,49.3 12.3,42.6 20.6,42.6 L72.8,42.6 C76.4,49.4 81.8,54.2 89,57.3 C92.3,58.7 95.8,59.3 99.4,58.6 C105.9,57.3 108.7,51.7 108,45.9 C107.9,44.8 107.6,43.7 107.3,42.6 L121.2,42.6 C129.5,42.6 136.2,49.3 136.2,57.6 L136.2,117.1 L136.2,117.1 Z" id="Shape"></path>
            </g>
        </g>
    </g>
</svg>