<?xml version="1.0" encoding="UTF-8" standalone="no"?>
<svg width="151px" height="150px" viewBox="0 0 151 150" version="1.1" xmlns="http://www.w3.org/2000/svg" xmlns:xlink="http://www.w3.org/1999/xlink">
    <!-- Generator: Sketch 3.6.1 (26313) - http://www.bohemiancoding.com/sketch -->
    <title>Buy sell</title>
    <desc>Created with Sketch.</desc>
    <defs></defs>
    <g id="Page-1" stroke="none" stroke-width="1" fill="none" fill-rule="evenodd">
        <g id="Buy-sell" fill="#FFFFFF">
            <g id="Group">
                <path d="M84.9,98.9 C84.3,99.1 83.7,99.3 83.1,99.4 C81.1,99.8 78.7,100.1 76,100.1 C73.2,100.1 70.8,99.7 68.7,99.1 C66.3,98.4 64.3,97.2 63,95.6 C61.6,94 60.7,91.5 60.2,88.2 L45.5,88.2 C45.5,95.7 48.3,101.6 53.8,105.9 C57.7,108.9 62.7,110.9 68.6,111.8 L68.6,119.7 L83,119.7 L83,112 C89.3,111.2 94.5,109.1 98.4,105.9 C103.6,101.5 106.2,96.1 106.2,89.5 C106.2,83.1 104,78.1 99.7,74.7 C96.9,72.5 92.7,70.8 87,69.5 L83.1,68.6 L74.2,66.5 C72,66 70.2,65.5 68.7,65.1 C66.8,64.5 65.3,64 64.5,63.5 C62.1,62.2 60.9,60.3 60.9,57.7 C60.9,54.9 62.1,52.7 64.5,51.1 C65.7,50.3 67.1,49.7 68.7,49.4 C70.3,49 72.2,48.8 74.2,48.8 C77.7,48.8 80.7,49.4 83.1,50.5 C83.2,50.5 83.2,50.5 83.3,50.6 C87,52.4 88.9,55.5 89.2,59.9 L103.9,59.9 C103.6,52.2 100.7,46.4 95.2,42.3 C91.6,39.7 87.6,37.9 83.1,37 L83.1,28.9 L68.6,28.9 L68.6,36.6 C62.4,37.4 57.5,39.4 53.9,42.6 C49.1,46.9 46.7,52.3 46.7,58.7 C46.7,65.8 49.2,71 54.1,74.3 C56.8,76.2 61.7,77.9 68.6,79.5 C69.1,79.6 69.6,79.7 70.1,79.8 L78,81.5 C79.9,81.9 81.5,82.3 83,82.8 C85.1,83.5 86.9,84.1 88.2,84.9 C90.3,86.2 91.4,88.1 91.4,90.4 C91.5,94.6 89.3,97.4 84.9,98.9 L84.9,98.9 Z" id="Shape"></path>
                <path d="M75.4,0 C34.2,0 0.7,33.5 0.7,74.7 C0.7,115.9 34.2,149.4 75.4,149.4 C92.7,149.4 108.7,143.5 121.4,133.5 C121.8,133.2 122.2,132.9 122.6,132.5 L121.4,146.5 C121.3,148 122.4,149.3 123.9,149.5 L124.1,149.5 C125.5,149.5 126.7,148.4 126.8,147 L128.7,125 C128.8,124.2 128.5,123.4 127.9,122.8 C127.3,122.2 126.5,121.9 125.7,122 L103.7,123.9 C102.2,124 101.1,125.4 101.2,126.9 C101.3,128.4 102.6,129.5 104.2,129.4 L119.3,128.1 C107.3,137.9 92,143.9 75.4,143.9 C37.2,143.9 6.1,112.8 6.1,74.6 C6.1,36.4 37.2,5.3 75.4,5.3 C113.6,5.3 144.7,36.4 144.7,74.6 C144.7,91 139,106.1 129.4,118 C130.8,119.2 132.1,120.5 133.4,121.7 C143.9,108.8 150.2,92.4 150.2,74.6 C150.1,33.5 116.6,0 75.4,0 L75.4,0 Z" id="Shape"></path>
            </g>
        </g>
    </g>
</svg>