<?xml version="1.0" encoding="utf-8"?>
<!-- Generator: Adobe Illustrator 19.1.0, SVG Export Plug-In . SVG Version: 6.00 Build 0)  -->
<svg version="1.1" id="Layer_1" xmlns="http://www.w3.org/2000/svg" xmlns:xlink="http://www.w3.org/1999/xlink" x="0px" y="0px"
	 viewBox="0 0 180 180" style="enable-background:new 0 0 180 180;" xml:space="preserve">
<g>
	<g>
		<path d="M100.9,113.9c-0.6,0.2-1.2,0.4-1.8,0.5c-2,0.4-4.4,0.7-7.1,0.7c-2.8,0-5.2-0.4-7.3-1c-2.4-0.7-4.4-1.9-5.7-3.5
			c-1.4-1.6-2.3-4.1-2.8-7.4H61.5c0,7.5,2.8,13.4,8.3,17.7c3.9,3,8.9,5,14.8,5.9v7.9h14.4V127c6.3-0.8,11.5-2.9,15.4-6.1
			c5.2-4.4,7.8-9.8,7.8-16.4c0-6.4-2.2-11.4-6.5-14.8c-2.8-2.2-7-3.9-12.7-5.2l-3.9-0.9l-8.9-2.1c-2.2-0.5-4-1-5.5-1.4
			c-1.9-0.6-3.4-1.1-4.2-1.6c-2.4-1.3-3.6-3.2-3.6-5.8c0-2.8,1.2-5,3.6-6.6c1.2-0.8,2.6-1.4,4.2-1.7c1.6-0.4,3.5-0.6,5.5-0.6
			c3.5,0,6.5,0.6,8.9,1.7c0.1,0,0.1,0,0.2,0.1c3.7,1.8,5.6,4.9,5.9,9.3h14.7c-0.3-7.7-3.2-13.5-8.7-17.6c-3.6-2.6-7.6-4.4-12.1-5.3
			v-8.1H84.6v7.7c-6.2,0.8-11.1,2.8-14.7,6c-4.8,4.3-7.2,9.7-7.2,16.1c0,7.1,2.5,12.3,7.4,15.6c2.7,1.9,7.6,3.6,14.5,5.2
			c0.5,0.1,1,0.2,1.5,0.3l7.9,1.7c1.9,0.4,3.5,0.8,5,1.3c2.1,0.7,3.9,1.3,5.2,2.1c2.1,1.3,3.2,3.2,3.2,5.5
			C107.5,109.6,105.3,112.4,100.9,113.9z"/>
	</g>
	<path d="M91.4,15c-41.2,0-74.7,33.5-74.7,74.7s33.5,74.7,74.7,74.7c17.3,0,33.3-5.9,46-15.9c0.4-0.3,0.8-0.6,1.2-1l-1.2,14
		c-0.1,1.5,1,2.8,2.5,3c0.1,0,0.2,0,0.2,0c1.4,0,2.6-1.1,2.7-2.5l1.9-22c0.1-0.8-0.2-1.6-0.8-2.2c-0.6-0.6-1.4-0.9-2.2-0.8l-22,1.9
		c-1.5,0.1-2.6,1.5-2.5,3c0.1,1.5,1.4,2.6,3,2.5l15.1-1.3c-12,9.8-27.3,15.8-43.9,15.8c-38.2,0-69.3-31.1-69.3-69.3
		s31.1-69.3,69.3-69.3s69.3,31.1,69.3,69.3c0,16.4-5.7,31.5-15.3,43.4c1.4,1.2,2.7,2.5,4,3.7c10.5-12.9,16.8-29.3,16.8-47.1
		C166.1,48.5,132.6,15,91.4,15z"/>
</g>
</svg>
