<?xml version="1.0" encoding="utf-8"?>
<!-- Generator: Adobe Illustrator 19.1.0, SVG Export Plug-In . SVG Version: 6.00 Build 0)  -->
<svg version="1.1" id="Layer_1" xmlns="http://www.w3.org/2000/svg" xmlns:xlink="http://www.w3.org/1999/xlink" x="0px" y="0px"
	 viewBox="0 0 181 181" style="enable-background:new 0 0 181 181;" xml:space="preserve">
<g>
	<polygon points="145.3,137.3 122.7,160 60.4,160 37.9,137.4 37.9,50.5 29.4,50.5 29.4,18.6 85.2,18.6 85.2,50.5 76.7,50.5 
		76.7,123.7 81.3,128.1 102,128.1 106.4,123.7 106.4,50.5 97.9,50.5 97.9,18.6 153.8,18.6 153.8,50.5 145.3,50.5 	"/>
	<g>
		<path d="M85.5,76.1c1.6-1,3.5-1.5,5.7-1.5c3,0,5.5,0.7,7.4,2.1c2,1.4,3,3.5,3,6.3c0,1.7-0.4,3.2-1.3,4.3c-0.5,0.7-1.5,1.6-2.9,2.7
			L96,91.2c-0.8,0.6-1.3,1.3-1.5,2.1c-0.2,0.5-0.2,1.3-0.3,2.3h-5.4c0.1-2.2,0.3-3.8,0.6-4.6c0.3-0.9,1.2-1.8,2.6-2.9l1.4-1.1
			c0.5-0.4,0.9-0.7,1.1-1.2c0.5-0.7,0.8-1.5,0.8-2.4c0-1-0.3-1.9-0.9-2.7c-0.6-0.8-1.7-1.2-3.2-1.2c-1.5,0-2.6,0.5-3.2,1.5
			c-0.6,1-1,2.1-1,3.2h-5.7C81.7,80.3,83,77.6,85.5,76.1z M88.8,98.3h5.9v5.7h-5.9V98.3z"/>
	</g>
</g>
</svg>
