<?xml version="1.0" encoding="UTF-8" standalone="no"?>
<svg width="144px" height="121px" viewBox="0 0 144 121" version="1.1" xmlns="http://www.w3.org/2000/svg" xmlns:xlink="http://www.w3.org/1999/xlink">
    <!-- Generator: Sketch 3.6.1 (26313) - http://www.bohemiancoding.com/sketch -->
    <title>Internships &amp; Jobs</title>
    <desc>Created with Sketch.</desc>
    <defs></defs>
    <g id="Page-1" stroke="none" stroke-width="1" fill="none" fill-rule="evenodd">
        <g id="Internships-&amp;-Jobs" fill="#FFFFFF">
            <g id="Group">
                <circle id="Oval" cx="35.8" cy="59.4" r="17.4"></circle>
                <path d="M121.9,17.6 L78.2,17.6 L78.2,29 C78.2,32.8 75.1,35.8 71.1,36 C69.5,36.1 67.9,35.4 66.6,34.2 C65.2,32.8 64.3,30.9 64.3,29.1 L64.3,17.6 L22,17.6 C9.9,17.6 0,27.4 0,39.6 L0,99 C0,104.6 2.1,109.8 5.6,113.7 C9.6,118.2 15.4,121 21.9,121 L64.7,121 L121.7,121 C133.8,121 143.7,111.2 143.7,99 L143.7,39.6 C143.9,27.5 134,17.6 121.9,17.6 L121.9,17.6 Z M138.1,99 C138.1,108 130.8,115.2 121.9,115.2 L65.8,115.2 C65.9,114.2 65.9,113.1 65.9,112.1 C65.9,93.8 52.4,79 35.8,79 C21.7,79 9.8,89.7 6.6,104 C6.1,102.4 5.8,100.7 5.8,99 L5.8,39.6 C5.8,30.6 13.1,23.4 22,23.4 L58.5,23.4 L58.5,29 C58.5,32.4 60,35.8 62.6,38.3 C65.1,40.6 68.2,41.9 71.3,41.7 C78.3,41.4 83.9,35.8 83.9,29 L83.9,23.4 L121.9,23.4 C130.9,23.4 138.1,30.7 138.1,39.6 L138.1,99 L138.1,99 Z" id="Shape"></path>
                <path d="M126.9,60.1 L74.5,60.1 C72.7,60.1 71.2,58.6 71.2,56.8 C71.2,55 72.7,53.5 74.5,53.5 L126.9,53.5 C128.7,53.5 130.2,55 130.2,56.8 C130.2,58.6 128.7,60.1 126.9,60.1 L126.9,60.1 Z" id="Shape"></path>
                <path d="M71.5,31.5 C69.7,31.5 68.2,30 68.2,28.2 L68.2,3.7 C68.2,1.9 69.7,0.4 71.5,0.4 C73.3,0.4 74.8,1.9 74.8,3.7 L74.8,28.1 C74.8,30 73.3,31.5 71.5,31.5 L71.5,31.5 Z" id="Shape"></path>
                <path d="M126.9,77.8 L74.5,77.8 C72.7,77.8 71.2,76.3 71.2,74.5 C71.2,72.7 72.7,71.2 74.5,71.2 L126.9,71.2 C128.7,71.2 130.2,72.7 130.2,74.5 C130.2,76.4 128.7,77.8 126.9,77.8 L126.9,77.8 Z" id="Shape"></path>
                <path d="M126.9,95.6 L74.5,95.6 C72.7,95.6 71.2,94.1 71.2,92.3 C71.2,90.5 72.7,89 74.5,89 L126.9,89 C128.7,89 130.2,90.5 130.2,92.3 C130.2,94.1 128.7,95.6 126.9,95.6 L126.9,95.6 Z" id="Shape"></path>
            </g>
        </g>
    </g>
</svg>