<?xml version="1.0" encoding="UTF-8" standalone="no"?>
<svg width="148px" height="107px" viewBox="0 0 148 107" version="1.1" xmlns="http://www.w3.org/2000/svg" xmlns:xlink="http://www.w3.org/1999/xlink">
    <!-- Generator: Sketch 3.6.1 (26313) - http://www.bohemiancoding.com/sketch -->
    <title>Lost n found</title>
    <desc>Created with Sketch.</desc>
    <defs></defs>
    <g id="Page-1" stroke="none" stroke-width="1" fill="none" fill-rule="evenodd">
        <g id="Lost-n-found" fill="#FFFFFF">
            <g id="Group">
                <path d="M64.4,2.8 C67,1.2 70.1,0.3 73.8,0.3 C78.7,0.3 82.8,1.5 86,3.8 C89.2,6.1 90.9,9.6 90.9,14.2 C90.9,17 90.2,19.4 88.8,21.3 C88,22.5 86.4,24 84.1,25.8 L81.8,27.6 C80.5,28.6 79.7,29.7 79.3,31 C79,31.8 78.9,33.1 78.9,34.8 L70,34.8 C70.1,31.1 70.5,28.6 71,27.2 C71.6,25.8 73,24.2 75.3,22.4 L77.7,20.5 C78.5,19.9 79.1,19.3 79.6,18.6 C80.5,17.4 80.9,16.1 80.9,14.7 C80.9,13.1 80.4,11.6 79.5,10.2 C78.5,8.8 76.8,8.2 74.2,8.2 C71.7,8.2 69.9,9 68.9,10.7 C67.9,12.4 67.3,14.1 67.3,15.9 L57.9,15.9 C58.2,9.8 60.4,5.4 64.4,2.8 L64.4,2.8 Z M69.8,39.4 L79.5,39.4 L79.5,48.8 L69.8,48.8 L69.8,39.4 L69.8,39.4 Z" id="Shape"></path>
                <path d="M143.8,106.6 L5.1,106.6 C3.4,106.6 1.8,105.5 1.2,103.9 C0.6,102.3 1,100.5 2.3,99.3 L59.8,47.9 C61.5,46.4 64.1,46.5 65.7,48.2 C67.2,49.9 67.1,52.5 65.4,54.1 L16,98.3 L132.9,98.3 L84,54.6 C82.3,53.1 82.1,50.4 83.7,48.7 C85.2,47 87.9,46.8 89.6,48.4 L146.6,99.4 C147.9,100.6 148.3,102.4 147.7,104 C147.1,105.6 145.5,106.6 143.8,106.6 L143.8,106.6 Z" id="Shape"></path>
            </g>
        </g>
    </g>
</svg>