<?xml version="1.0" encoding="utf-8"?>
<!-- Generator: Adobe Illustrator 19.1.0, SVG Export Plug-In . SVG Version: 6.00 Build 0)  -->
<svg version="1.1" id="Layer_1" xmlns="http://www.w3.org/2000/svg" xmlns:xlink="http://www.w3.org/1999/xlink" x="0px" y="0px"
	 viewBox="0 0 181 181" style="enable-background:new 0 0 181 181;" xml:space="preserve">
<g>
	<g>
		<path d="M80.4,37.8c2.6-1.6,5.7-2.5,9.4-2.5c4.9,0,9,1.2,12.2,3.5c3.2,2.3,4.9,5.8,4.9,10.4c0,2.8-0.7,5.2-2.1,7.1
			c-0.8,1.2-2.4,2.7-4.7,4.5l-2.3,1.8c-1.3,1-2.1,2.1-2.5,3.4c-0.3,0.8-0.4,2.1-0.4,3.8H86c0.1-3.7,0.5-6.2,1-7.6
			c0.6-1.4,2-3,4.3-4.8l2.4-1.9c0.8-0.6,1.4-1.2,1.9-1.9c0.9-1.2,1.3-2.5,1.3-3.9c0-1.6-0.5-3.1-1.4-4.5c-1-1.4-2.7-2-5.3-2
			c-2.5,0-4.3,0.8-5.3,2.5c-1,1.7-1.6,3.4-1.6,5.2h-9.4C74.2,44.8,76.4,40.4,80.4,37.8z M85.8,74.4h9.7v9.4h-9.7V74.4z"/>
	</g>
	<g>
		<path d="M159.8,141.6H21.1c-1.7,0-3.3-1.1-3.9-2.7c-0.6-1.6-0.2-3.4,1.1-4.6l57.5-51.4c1.7-1.5,4.3-1.4,5.9,0.3
			c1.5,1.7,1.4,4.3-0.3,5.9L32,133.3h116.9L100,89.6c-1.7-1.5-1.9-4.2-0.3-5.9c1.5-1.7,4.2-1.9,5.9-0.3l57,51c1.3,1.2,1.7,3,1.1,4.6
			C163.1,140.6,161.5,141.6,159.8,141.6z"/>
	</g>
</g>
</svg>
