<?xml version="1.0" encoding="utf-8"?>
<!-- Generator: Adobe Illustrator 19.1.0, SVG Export Plug-In . SVG Version: 6.00 Build 0)  -->
<svg version="1.1" id="Layer_1" xmlns="http://www.w3.org/2000/svg" xmlns:xlink="http://www.w3.org/1999/xlink" x="0px" y="0px"
	 viewBox="0 0 181 181" style="enable-background:new 0 0 181 181;" xml:space="preserve">
<g>
	<path d="M143.4,156.9c-0.2,0.5-0.3,0.6-0.3,0.7c-0.2,1.3-0.1,3.5-0.6,3.8c-1.6,0.6-3.5,0.4-5.2,0.2c-0.5-0.1-1.1-1.4-1.1-2.2
		c0.1-1.8-0.4-2.5-2.4-2.5c-28.1,0.1-56.2,0-84.3,0c-0.6,0-1.2,0.1-2,0.1c-0.1,1.5-0.2,3-0.3,4.5c-0.6,0.1-0.9,0.2-1.3,0.2
		c-5,0.2-5,0.2-5.7-4.4c-0.1-0.1-0.2-0.3-0.3-0.3c-3.6-0.4-3.6-0.4-3.6-4.1c0-15.6,0-31.1,0-46.7c0-1.9,0.3-3.2,2.6-2.8
		c1.4,0.2,1.6-0.7,1.6-1.9c0-3.9,0-7.8,0-11.7c0-12.3,0-24.7,0-37c0-1.6-0.4-2.7-1.8-3.6c-4.5-3-7.5-9.8-5.5-15.1
		c1.5-4.2,2.4-8.7,3.5-13.1c0.4-1.7,1.1-2.5,3.1-2.4c34.9,0.1,69.7,0.1,104.6,0c1.7,0,2.6,0.4,3,2.2c1.3,5.2,3.1,10.3,4.1,15.5
		c1,5.6-1.8,10-6.4,13.1c-1.5,1-1.9,2.1-1.9,3.7c0,15.8,0.1,31.6,0,47.3c0,2.1,0.3,3.3,2.7,2.9c1.5-0.2,2,0.5,1.9,2
		c0,16.5,0,32.9,0,49.4c0,1.6-0.6,2.2-2.2,2.1C144.7,156.9,144,156.9,143.4,156.9z M121.6,40.1c-2.3,7.2-6.8,11.8-14.7,11.9
		C99,52.1,94.5,47.4,91.8,40c-2.6,7.6-7.3,12-15,11.9c-7.7-0.1-12.3-4.5-14.5-11.6c-0.2,0.1-0.4,0.2-0.4,0.3c-0.2,0.3-0.4,0.7-0.5,1
		c-2.1,6-6.3,9.5-12.6,10.2c-1.4,0.2-1.6,0.9-1.6,2c0,15.9,0,31.7,0,47.5c0,1.5,0.6,2,2,2c28.3,0,56.5,0,84.8,0
		c1.6,0,2.1-0.5,2.1-2.1c0-15.8,0-31.5,0-47.3c0-1.4-0.4-2-1.9-2.2c-4.1-0.6-7.5-2.6-9.8-6.1C123.3,44,122.5,42.1,121.6,40.1z"/>
</g>
</svg>
