<?xml version="1.0" encoding="UTF-8" standalone="no"?>
<svg width="120px" height="144px" viewBox="0 0 120 144" version="1.1" xmlns="http://www.w3.org/2000/svg" xmlns:xlink="http://www.w3.org/1999/xlink">
    <!-- Generator: Sketch 3.6.1 (26313) - http://www.bohemiancoding.com/sketch -->
    <title>Market</title>
    <desc>Created with Sketch.</desc>
    <defs></defs>
    <g id="Page-1" stroke="none" stroke-width="1" fill="none" fill-rule="evenodd">
        <g id="Market" fill="#FFFFFF">
            <path d="M111.4,138.9 C111.2,139.4 111.1,139.5 111.1,139.6 C110.9,140.9 111,143.1 110.5,143.4 C108.9,144 107,143.8 105.3,143.6 C104.8,143.5 104.2,142.2 104.2,141.4 C104.3,139.6 103.8,138.9 101.8,138.9 C73.7,139 45.6,138.9 17.5,138.9 C16.9,138.9 16.3,139 15.5,139 C15.4,140.5 15.3,142 15.2,143.5 C14.6,143.6 14.3,143.7 13.9,143.7 C8.9,143.9 8.9,143.9 8.2,139.3 C8.1,139.2 8,139 7.9,139 C4.3,138.6 4.3,138.6 4.3,134.9 L4.3,88.2 C4.3,86.3 4.6,85 6.9,85.4 C8.3,85.6 8.5,84.7 8.5,83.5 L8.5,71.8 L8.5,34.8 C8.5,33.2 8.1,32.1 6.7,31.2 C2.2,28.2 -0.8,21.4 1.2,16.1 C2.7,11.9 3.6,7.4 4.7,3 C5.1,1.3 5.8,0.5 7.8,0.6 C42.7,0.7 77.5,0.7 112.4,0.6 C114.1,0.6 115,1 115.4,2.8 C116.7,8 118.5,13.1 119.5,18.3 C120.5,23.9 117.7,28.3 113.1,31.4 C111.6,32.4 111.2,33.5 111.2,35.1 C111.2,50.9 111.3,66.7 111.2,82.4 C111.2,84.5 111.5,85.7 113.9,85.3 C115.4,85.1 115.9,85.8 115.8,87.3 L115.8,136.7 C115.8,138.3 115.2,138.9 113.6,138.8 C112.7,138.9 112,138.9 111.4,138.9 L111.4,138.9 Z M89.6,22.1 C87.3,29.3 82.8,33.9 74.9,34 C67,34.1 62.5,29.4 59.8,22 C57.2,29.6 52.5,34 44.8,33.9 C37.1,33.8 32.5,29.4 30.3,22.3 C30.1,22.4 29.9,22.5 29.9,22.6 C29.7,22.9 29.5,23.3 29.4,23.6 C27.3,29.6 23.1,33.1 16.8,33.8 C15.4,34 15.2,34.7 15.2,35.8 L15.2,83.3 C15.2,84.8 15.8,85.3 17.2,85.3 L102,85.3 C103.6,85.3 104.1,84.8 104.1,83.2 L104.1,35.9 C104.1,34.5 103.7,33.9 102.2,33.7 C98.1,33.1 94.7,31.1 92.4,27.6 C91.3,26 90.5,24.1 89.6,22.1 L89.6,22.1 Z" id="Shape"></path>
        </g>
    </g>
</svg>