<?xml version="1.0" encoding="utf-8"?>
<!-- Generator: Adobe Illustrator 19.1.0, SVG Export Plug-In . SVG Version: 6.00 Build 0)  -->
<svg version="1.1" id="Layer_1" xmlns="http://www.w3.org/2000/svg" xmlns:xlink="http://www.w3.org/1999/xlink" x="0px" y="0px"
	 viewBox="0 0 181 181" style="enable-background:new 0 0 181 181;" xml:space="preserve">
<path d="M165.5,76h-8.7h-2.4v2.4v2.9l-18.3-43.5l-0.6-1.5H134H51.3h-1.6l-0.6,1.5L31.1,81.6v-3.2V76h-2.4H20h-2.4v2.4v5.7v2.4H20
	h8.7h0.4l-0.6,1.5l-1.3,3h-0.1v0.1l0,0.1h0v2.1v26.3v2.4h2.4h7.4v18.5v2.4h2.4h13.2h2.4v-2.4v-18.5h76v18.5v2.4h2.4h13.2h2.4v-2.4
	v-18.5h7.5h2.4v-2.4V93.4v-2.1h0l0,0V91h-0.1l-1.3-3.1l-0.6-1.5h0.2h8.7h2.4v-2.4v-5.7V76H165.5z M128.9,84.3
	c0.1-0.5,0.1-1.1,0.1-1.7c0-8-6.2-14.6-13.9-14.6s-13.9,6.5-13.9,14.6c0,0.6,0.1,1.2,0.1,1.7H39.3L55,43.9h74.8l16.7,40.4H128.9z
	 M131.5,106.2v-8.8h16.7v8.8H131.5z M39.3,106.2v-8.8h16.7v8.8H39.3z"/>
</svg>
