<?xml version="1.0" encoding="UTF-8" standalone="no"?>
<svg width="152px" height="107px" viewBox="0 0 152 107" version="1.1" xmlns="http://www.w3.org/2000/svg" xmlns:xlink="http://www.w3.org/1999/xlink">
    <!-- Generator: Sketch 3.6.1 (26313) - http://www.bohemiancoding.com/sketch -->
    <title>Rideshare</title>
    <desc>Created with Sketch.</desc>
    <defs></defs>
    <g id="Page-1" stroke="none" stroke-width="1" fill="none" fill-rule="evenodd">
        <g id="Rideshare" fill="#FFFFFF">
            <path d="M148.5,40 L139.8,40 L137.4,40 L137.4,42.4 L137.4,45.3 L119.1,1.8 L118.5,0.3 L117,0.3 L34.3,0.3 L32.7,0.3 L32.1,1.8 L14.1,45.6 L14.1,42.4 L14.1,40 L11.7,40 L3,40 L0.6,40 L0.6,42.4 L0.6,48.1 L0.6,50.5 L3,50.5 L11.7,50.5 L12.1,50.5 L11.5,52 L10.2,55 L10.1,55 L10.1,55.1 L10.1,55.2 L10.1,55.2 L10.1,57.3 L10.1,83.6 L10.1,86 L12.5,86 L19.9,86 L19.9,104.5 L19.9,106.9 L22.3,106.9 L35.5,106.9 L37.9,106.9 L37.9,104.5 L37.9,86 L113.9,86 L113.9,104.5 L113.9,106.9 L116.3,106.9 L129.5,106.9 L131.9,106.9 L131.9,104.5 L131.9,86 L139.4,86 L141.8,86 L141.8,83.6 L141.8,57.4 L141.8,55.3 L141.8,55.3 L141.8,55.3 L141.8,55 L141.7,55 L140.4,51.9 L139.8,50.4 L140,50.4 L148.7,50.4 L151.1,50.4 L151.1,48 L151.1,42.3 L151.1,40 L148.5,40 L148.5,40 Z M111.9,48.3 C112,47.8 112,47.2 112,46.6 C112,38.6 105.8,32 98.1,32 C90.4,32 84.2,38.5 84.2,46.6 C84.2,47.2 84.3,47.8 84.3,48.3 L22.3,48.3 L38,7.9 L112.8,7.9 L129.5,48.3 L111.9,48.3 L111.9,48.3 Z M114.5,70.2 L114.5,61.4 L131.2,61.4 L131.2,70.2 L114.5,70.2 L114.5,70.2 Z M22.3,70.2 L22.3,61.4 L39,61.4 L39,70.2 L22.3,70.2 L22.3,70.2 Z" id="Shape"></path>
        </g>
    </g>
</svg>