<svg id="Layer_1" data-name="Layer 1" xmlns="http://www.w3.org/2000/svg" viewBox="0 0 235.93 235.93"><defs><style>.cls-1{fill:#8dc63f;}.cls-2{fill:#6d9d31;}.cls-3{fill:#fff;}</style></defs><title>Icons</title><path class="cls-1" d="M48.1,94.33l7-8.75,8-5.25,60.25-.5,38.9-33.75L235,103.21A118,118,0,0,0,118,0h0A118,118,0,0,0,0,118H0a118,118,0,0,0,118,118h0a118.76,118.76,0,0,0,19.16-1.56l-86.18-62.3Z"/><path class="cls-2" d="M235.93,118h0a119.11,119.11,0,0,0-.92-14.76L162.25,46.08l-38.9,33.75-60.25.5-8,5.25-7,8.75,2.85,77.75,86.18,62.3A118,118,0,0,0,235.93,118Z"/><path class="cls-3" d="M101,114.63l0.16,0.15,24.72-18.21-6.69-6.64Z"/><path class="cls-3" d="M167.84,78.58H153.19c1.32-1.42,2.7-2.8,4.12-4.12a1.73,1.73,0,0,1,1.31-.28c1.58,0.28,3.14.79,4.73,1,5,0.61,9.48-1.83,10.78-6.2a14.45,14.45,0,0,0,.48-6.26c-1.38-8.31-6.38-14.18-13.32-18.55A19.84,19.84,0,0,0,151.06,41c-5.68,0-9.52,3-10.35,8.32a15.42,15.42,0,0,0,.92,7.77,1.23,1.23,0,0,1-.33,1.55c-1.39,1.31-2.74,2.67-4.06,4.06a1.24,1.24,0,0,1-1.65.34,20.26,20.26,0,0,0-9.18-1.76,10.54,10.54,0,0,0-10.35,9.15,17.23,17.23,0,0,0,.72,8.17H66.09A20.14,20.14,0,0,0,46,98.7v60.14A20.14,20.14,0,0,0,66.09,179H167.84A20.14,20.14,0,0,0,188,158.85V98.7A20.14,20.14,0,0,0,167.84,78.58ZM183,158.85A15.16,15.16,0,0,1,167.84,174H66.09a15.16,15.16,0,0,1-15.14-15.14V98.7A15.16,15.16,0,0,1,66.09,83.56h52.83A32.05,32.05,0,0,0,135.34,98.4a17.5,17.5,0,0,0,10.47,1.31c6.61-1.35,9.39-7,8.69-12.85a21.2,21.2,0,0,0-.72-3.3h14.07A15.16,15.16,0,0,1,183,98.7v60.14Z"/></svg>