<svg id="Layer_1" data-name="Layer 1" xmlns="http://www.w3.org/2000/svg" viewBox="0 0 235.93 235.93"><defs><style>.cls-1{fill:#00aeef;}.cls-2{fill:#008bbf;}.cls-3{fill:#fff;}</style></defs><title>Icons</title><path class="cls-1" d="M40.37,140.83l-2.25-31.25,3.25-15.25,8-16.76,14-18.74,20.5-13,23-7.75,37.75,4.25,35.25,23.25,55.81,44.85A118,118,0,0,0,118,0h0A118,118,0,0,0,0,118H0a118,118,0,0,0,118,118h0c0.8,0,1.6,0,2.4,0L56.09,173Z"/><path class="cls-2" d="M235.93,118h0c0-2.53-.09-5-0.25-7.54L179.87,65.58,144.62,42.33l-37.75-4.25-23,7.75-20.5,13-14,18.74-8,16.76-3.25,15.25,2.25,31.25L56.09,173l64.28,62.94A118,118,0,0,0,235.93,118Z"/><path class="cls-3" d="M128.55,144.64a19.48,19.48,0,0,1-2,.56,36.73,36.73,0,0,1-7.92.74,27.62,27.62,0,0,1-8.09-1.09,13.14,13.14,0,0,1-6.35-3.86q-2.3-2.72-3.09-8.21H84.88q0,12.5,9.18,19.65c4.33,3.37,9.83,5.53,16.45,6.51v8.72h16v-8.52q10.53-1.34,17-6.82a22.87,22.87,0,0,0,8.6-18.23q0-10.7-7.26-16.36-4.67-3.64-14-5.81l-4.34-1-9.9-2.31c-2.43-.56-4.43-1.08-6.11-1.58a25.43,25.43,0,0,1-4.67-1.73,6.86,6.86,0,0,1-4-6.41,8.23,8.23,0,0,1,4-7.28,15,15,0,0,1,4.61-1.93,25.43,25.43,0,0,1,6.11-.68,22.85,22.85,0,0,1,9.9,1.93l0.2,0.08q6.09,3,6.55,10.27h16.29Q149.12,88.5,140,81.79a34,34,0,0,0-13.43-5.85V67h-16v8.52q-10.26,1.33-16.28,6.68a22.9,22.9,0,0,0-8,17.88q0,11.79,8.2,17.34c3,2.06,8.4,4,16.1,5.75l1.69,0.39,8.78,1.9c2.1,0.44,3.9.92,5.54,1.42a26.74,26.74,0,0,1,5.72,2.33,6.83,6.83,0,0,1,3.55,6.14Q135.8,142.14,128.55,144.64Z"/><path class="cls-3" d="M118,35a82.89,82.89,0,1,0,51,148.18l1.31-1.06L169,197.65a3,3,0,0,0,2.77,3.28H172a3,3,0,0,0,3-2.78l2.06-24.35a3,3,0,0,0-3.28-3.28l-24.35,2.06a3,3,0,0,0,.51,6l16.72-1.41A76.79,76.79,0,1,1,177.81,166c1.51,1.37,3,2.73,4.45,4.13A82.83,82.83,0,0,0,118,35Z"/></svg>