<svg id="Layer_1" data-name="Layer 1" xmlns="http://www.w3.org/2000/svg" viewBox="0 0 235.93 235.93"><defs><style>.cls-1{fill:#894b9d;}.cls-2{fill:#6d387e;}.cls-3{fill:#fff;}</style></defs><title>Icons</title><path class="cls-1" d="M64.44,168.91L106.6,50.49l54.91,43.32L180,50.49l53.5,43.41A118,118,0,0,0,118,0h0A118,118,0,0,0,0,118H0a118,118,0,0,0,118,118h0a119.35,119.35,0,0,0,12-.6L86.86,191.45Z"/><path class="cls-2" d="M235.93,118h0a118.48,118.48,0,0,0-2.46-24.07L180,50.49,161.51,93.81,106.6,50.49,64.44,168.91l22.43,22.53L130,235.33A118,118,0,0,0,235.93,118Z"/><path class="cls-3" d="M129.23,50.49v31.8h8.47v21.6a13.62,13.62,0,0,0-4.94-6.14c-3.89-2.87-9-4.3-15.15-4.3a21.57,21.57,0,0,0-11.67,3.07c-4,2.42-6.53,6.36-7.81,11.82V82.29h8.47V50.49H56v31.8h8.48v86.63l22.43,22.53H149l22.53-22.63V82.29H180V50.49H129.23Zm-0.9,113.14H107.7l-9.57-8.37V113.1H109a13,13,0,0,1,2-6.55c1.23-2,3.48-3.07,6.55-3.07s5.32,0.82,6.55,2.46a9,9,0,0,1,1.84,5.53,8.34,8.34,0,0,1-1.64,4.91,6.37,6.37,0,0,1-2.25,2.46l-2.87,2.25c-2.87,2.25-4.71,4.1-5.32,5.94-0.61,1.64-1,4.91-1.23,9.42h11.06a21.86,21.86,0,0,1,.61-4.71,7.73,7.73,0,0,1,3.07-4.3l2.87-2.46a32.48,32.48,0,0,0,5.94-5.53,10.44,10.44,0,0,0,1.46-2.43v38.25Z"/><rect class="cls-3" x="112.18" y="139.95" width="11.68" height="11.28"/></svg>