<svg id="Layer_1" data-name="Layer 1" xmlns="http://www.w3.org/2000/svg" viewBox="0 0 235.93 235.93"><defs><style>.cls-1{fill:#6d9d31;}.cls-2{fill:#466e1c;}.cls-3{fill:#fff;}</style></defs><title>Icons</title><path class="cls-1" d="M65.2,62.34l11-14.52,21.29-4.3h26.32l36.79,0.92L233,91.51A118,118,0,0,0,118,0h0A118,118,0,0,0,0,118H0a118,118,0,0,0,118,118h0a118.72,118.72,0,0,0,19.85-1.67L67.58,184.72Z"/><path class="cls-2" d="M235.93,118h0a118.33,118.33,0,0,0-3-26.46L160.6,44.44l-36.79-.92H97.49L76.2,47.82l-11,14.52,2.38,122.38,70.23,49.54A118,118,0,0,0,235.93,118Z"/><path class="cls-3" d="M147,40.75H89A27.15,27.15,0,0,0,61.84,67.87V168.06A27.15,27.15,0,0,0,89,195.19h58a27.15,27.15,0,0,0,27.12-27.12V67.87A27.15,27.15,0,0,0,147,40.75Zm20,127.31a20.07,20.07,0,0,1-20,20H134.34V146.62H101.6v41.49H89a20.07,20.07,0,0,1-20-20V67.87a20.07,20.07,0,0,1,20-20h58a20.07,20.07,0,0,1,20,20V168.06Z"/><rect class="cls-3" x="84.35" y="104.48" width="26.27" height="26.27"/><rect class="cls-3" x="84.35" y="62.34" width="26.27" height="26.27"/><rect class="cls-3" x="125.31" y="104.48" width="26.27" height="26.27"/><rect class="cls-3" x="125.31" y="62.34" width="26.27" height="26.27"/></svg>