<svg id="Layer_1" data-name="Layer 1" xmlns="http://www.w3.org/2000/svg" viewBox="0 0 235.93 235.93"><defs><style>.cls-1{fill:#ad2c76;}.cls-2{fill:#7a1251;}.cls-3{fill:#fff;}</style></defs><title>Icons</title><path class="cls-1" d="M37.73,88.49L48,68.59,67,64,117.12,64l2.45-18.55,30.66,21.82,32.12-1.74L234,96.36A118,118,0,0,0,118,0h0A118,118,0,0,0,0,118H0a118,118,0,0,0,118,118h0c1.89,0,3.77,0,5.64-.14L44,171.19Z"/><path class="cls-2" d="M235.93,118h0a118.61,118.61,0,0,0-2-21.6l-51.6-30.79-32.12,1.74L119.57,45.49,117.12,64,67,64l-19,4.6L37.73,88.49l6.3,82.7,79.58,64.6A118,118,0,0,0,235.93,118Z"/><circle class="cls-3" cx="77.64" cy="110.6" r="19.4"/><path class="cls-3" d="M173.7,64H124.87V76.64c0,4.24-3.41,7.59-7.93,7.79a6.91,6.91,0,0,1-5.06-2.06,8.16,8.16,0,0,1-2.58-5.73V64H62.23a24.53,24.53,0,0,0-24.5,24.5v66.32a24.53,24.53,0,0,0,24.5,24.5H173.7a24.53,24.53,0,0,0,24.5-24.5V88.49A24.53,24.53,0,0,0,173.7,64Zm18.12,90.82a18.14,18.14,0,0,1-18.12,18.12H111.12c0.1-1.16.16-2.32,0.16-3.51,0-20.41-15.06-37-33.64-37-15.75,0-29,11.89-32.63,27.95a18,18,0,0,1-.89-5.6V88.49A18.14,18.14,0,0,1,62.23,70.37h40.69v6.26A14.46,14.46,0,0,0,107.47,87a13.23,13.23,0,0,0,9.76,3.82,14.4,14.4,0,0,0,14-14.17V70.37H173.7a18.14,18.14,0,0,1,18.12,18.12v66.32Z"/><path class="cls-3" d="M179.3,111.34H120.8a3.68,3.68,0,0,1,0-7.37H179.3A3.68,3.68,0,0,1,179.3,111.34Z"/><path class="cls-3" d="M117.42,79.44a3.68,3.68,0,0,1-3.68-3.68V48.48a3.68,3.68,0,0,1,7.37,0V75.76A3.68,3.68,0,0,1,117.42,79.44Z"/><path class="cls-3" d="M179.3,131.17H120.8a3.68,3.68,0,0,1,0-7.37H179.3A3.68,3.68,0,0,1,179.3,131.17Z"/><path class="cls-3" d="M179.3,151H120.8a3.68,3.68,0,0,1,0-7.37H179.3A3.68,3.68,0,1,1,179.3,151Z"/></svg>