<svg id="Layer_1" data-name="Layer 1" xmlns="http://www.w3.org/2000/svg" viewBox="0 0 235.93 235.93"><defs><style>.cls-1{fill:#6d387e;}.cls-2{fill:#4b1e57;}.cls-3{fill:#fff;}</style></defs><title>Icons</title><path class="cls-1" d="M46.51,156.42l-0.45-2.78,61.73-53.56,5.13,0.23-0.56-.23,11.79-5.7V89l-11.51-5.75,5.32-5.4,3.6-8.25,5.75-4.75,1-6.25,3.72-13,103.22,59.82A118,118,0,0,0,118,0h0A118,118,0,0,0,0,118H0a118,118,0,0,0,118,118h0a118.54,118.54,0,0,0,22.49-2.15L29.2,166.95Z"/><path class="cls-2" d="M235.93,118h0a119.34,119.34,0,0,0-.66-12.5L132.06,45.65l-3.72,13-1,6.25-5.75,4.75L118,77.88l-5.32,5.4L124.15,89v5.35l-11.79,5.7,0.56,0.23-5.13-.23L46.06,153.63l0.45,2.78L29.2,166.95l111.26,66.83A118,118,0,0,0,235.93,118Z"/><path class="cls-3" d="M105.83,44.38a20.68,20.68,0,0,1,11.43-3q8.91,0,14.8,4.26t5.89,12.61a14.26,14.26,0,0,1-2.56,8.63,29.4,29.4,0,0,1-5.74,5.44l-2.79,2.17a8.47,8.47,0,0,0-3,4.14,17.43,17.43,0,0,0-.51,4.65H112.65q0.24-6.66,1.26-9.2t5.27-5.85L122,66a10,10,0,0,0,2.28-2.33,8,8,0,0,0,1.57-4.77,9.21,9.21,0,0,0-1.75-5.46Q122.39,51,117.75,51t-6.47,3a11.69,11.69,0,0,0-1.91,6.31H98Q98.46,49.07,105.83,44.38Zm6.54,44.3h11.78v11.39H112.37V88.69Z"/><path class="cls-3" d="M202,170.19H33.91a5,5,0,0,1-3.36-8.81l69.66-62.32a5,5,0,1,1,6.73,7.52L47.12,160.1H188.8l-59.25-53a5,5,0,0,1,6.72-7.52l69.1,61.77A5,5,0,0,1,202,170.19Z"/></svg>