<svg id="Layer_1" data-name="Layer 1" xmlns="http://www.w3.org/2000/svg" viewBox="0 0 235.93 235.93"><defs><style>.cls-1{fill:#db3d94;}.cls-2{fill:#ad2c76;}.cls-3{fill:#fff;}</style></defs><title>Icons</title><path class="cls-1" d="M70,64.11L174,41.18l58.51,48.65A118,118,0,0,0,118,0h0A118,118,0,0,0,0,118H0a118,118,0,0,0,118,118h0c0.84,0,1.68,0,2.51,0L63.36,194Z"/><path class="cls-2" d="M235.93,118h0a118.23,118.23,0,0,0-3.39-28.14L174,41.18,70,64.11,63.36,194l57.11,41.94A118,118,0,0,0,235.93,118Z"/><path class="cls-3" d="M173.22,189.51a5,5,0,0,0-.35.79c-0.22,1.41-.06,3.8-0.69,4a12.12,12.12,0,0,1-5.56.21c-0.51-.07-1.18-1.55-1.16-2.37,0.06-2-.43-2.72-2.58-2.71q-45.24.1-90.49,0.05c-0.64,0-1.29.07-2.19,0.13l-0.33,4.83c-0.61.09-1,.19-1.41,0.21-5.37.25-5.37,0.25-6.07-4.75a1,1,0,0,0-.37-0.29c-3.89-.47-3.89-0.47-3.89-4.45,0-16.68,0-33.37,0-50.05,0-2.05.27-3.4,2.76-3,1.49,0.21,1.76-.76,1.76-2,0-4.19,0-8.38,0-12.57,0-13.23,0-26.46,0-39.7A4,4,0,0,0,60.7,74c-4.88-3.17-8-10.53-5.92-16.19,1.66-4.52,2.58-9.32,3.75-14C59,42,59.73,41.16,61.86,41.16q56.09,0.12,112.18,0c1.86,0,2.74.44,3.21,2.37,1.36,5.58,3.36,11,4.35,16.66,1.05,6-2,10.69-6.82,14a4.15,4.15,0,0,0-2,4q0.08,25.39,0,50.79c0,2.2.33,3.51,2.89,3.13,1.61-.24,2.1.58,2.09,2.16q-0.06,26.5,0,53c0,1.77-.64,2.38-2.31,2.22C174.71,189.46,174,189.51,173.22,189.51ZM149.83,64.21c-2.5,7.71-7.34,12.64-15.79,12.72s-13.27-4.87-16.16-12.82c-2.8,8.21-7.78,12.9-16.11,12.81S88.62,72,86.18,64.44a1.7,1.7,0,0,0-.47.34,7.06,7.06,0,0,0-.53,1.11c-2.26,6.41-6.73,10.15-13.49,11C70.19,77,70,77.81,70,79q0,25.51,0,51c0,1.61.61,2.12,2.18,2.12q45.47,0,90.94,0c1.71,0,2.29-.58,2.28-2.29q-0.07-25.38,0-50.77c0-1.51-.41-2.11-2-2.33a14.68,14.68,0,0,1-10.53-6.58A55,55,0,0,1,149.83,64.21Z"/></svg>