<svg id="Layer_1" data-name="Layer 1" xmlns="http://www.w3.org/2000/svg" viewBox="0 0 235.93 235.93"><defs><style>.cls-1{fill:#008bbf;}.cls-2{fill:#006288;}.cls-3{fill:#fff;}</style></defs><title>Icons</title><path class="cls-1" d="M61.09,149.87l-9.5-13.29L54.09,118l1-16.09L72.93,63.19l94-3.69,68.46,69.86c0.36-3.75.55-7.54,0.55-11.39h0A118,118,0,0,0,118,0h0A118,118,0,0,0,0,118H0A118,118,0,0,0,99.8,234.54L55,178.07Z"/><path class="cls-2" d="M118,235.93A118,118,0,0,0,235.39,129.35L166.93,59.5l-94,3.69L55.09,101.87l-1,16.09-2.5,18.62,9.5,13.29L55,178.07,99.8,234.54A118.86,118.86,0,0,0,118,235.93h0Z"/><path class="cls-3" d="M200,102.56H187.53v6l-20.6-49-0.69-1.64H69.45l-0.68,1.65L48.41,108.87v-6.31H33.25v11.8h12.9L45.46,116,44,119.44H44v0.17l0,0.09h0v34.8H55v23.58H75.2V154.49h85.7v23.58h20.23V154.49h11.08V119.7h0v-0.24h-0.1L190.66,116,190,114.36h12.71v-11.8H200Zm-41.32,9.35a15,15,0,0,0,.13-1.93c0-9.06-7-16.44-15.66-16.44s-15.66,7.37-15.66,16.44a12.87,12.87,0,0,0,.15,1.93h-70L75.32,66.36h84.31l18.83,45.55H158.7Zm2.92,24.67v-9.91h18.8v9.91h-18.8Zm-104,0v-9.91H76.4v9.91H57.6Z"/></svg>